<?xml version="1.0" encoding="UTF-8" standalone="no"?>
<!-- Generator: Adobe Illustrator 18.1.1, SVG Export Plug-In . SVG Version: 6.00 Build 0)  -->

<svg
   xmlns:dc="http://purl.org/dc/elements/1.1/"
   xmlns:cc="http://creativecommons.org/ns#"
   xmlns:rdf="http://www.w3.org/1999/02/22-rdf-syntax-ns#"
   xmlns:svg="http://www.w3.org/2000/svg"
   xmlns="http://www.w3.org/2000/svg"
   xmlns:sodipodi="http://sodipodi.sourceforge.net/DTD/sodipodi-0.dtd"
   xmlns:inkscape="http://www.inkscape.org/namespaces/inkscape"
   version="1.1"
   id="Capa_1"
   x="0px"
   y="0px"
   viewBox="0 0 19.22 19.22"
   style="enable-background:new 0 0 19.22 19.22;"
   xml:space="preserve"
   inkscape:version="0.48.2 r9819"
   width="100%"
   height="100%"
   sodipodi:docname="wordpress-.svg"><metadata
   id="metadata71"><rdf:RDF><cc:Work
       rdf:about=""><dc:format>image/svg+xml</dc:format><dc:type
         rdf:resource="http://purl.org/dc/dcmitype/StillImage" /><dc:title></dc:title></cc:Work></rdf:RDF></metadata><defs
   id="defs69" /><sodipodi:namedview
   pagecolor="#ffffff"
   bordercolor="#666666"
   borderopacity="1"
   objecttolerance="10"
   gridtolerance="10"
   guidetolerance="10"
   inkscape:pageopacity="0"
   inkscape:pageshadow="2"
   inkscape:window-width="1024"
   inkscape:window-height="752"
   id="namedview67"
   showgrid="false"
   inkscape:zoom="12.278876"
   inkscape:cx="9.61"
   inkscape:cy="9.61"
   inkscape:window-x="0"
   inkscape:window-y="0"
   inkscape:window-maximized="0"
   inkscape:current-layer="g3" />
<g
   id="g3">
	<path
   d="M18.029,5.13c-1.452-2.841-5.127-5.528-9.752-4.876C0.865,1.295-3.04,10.682,2.878,16.452   C10.036,23.431,23.25,15.328,18.029,5.13z M7.581,18.541c-3.828-0.652-7.065-4.636-7.141-8.708   C0.343,4.748,3.871,1.395,8.104,0.775c5.924-0.869,11.265,3.456,10.449,10.103C17.885,16.331,12.805,19.432,7.581,18.541z    M5.84,5.479C5.605,5.768,4.851,5.537,4.62,5.827c0.95,2.88,1.793,5.87,2.961,8.533c1.114-2.884,2.343-5.696,0.522-8.533   c-0.292-0.29-1.273,0.111-1.22-0.523c0.778-0.312,4.271-0.312,5.05,0c-0.002,0.578-0.982,0.177-1.219,0.523   c0.963,2.811,1.735,5.814,2.961,8.36c0.327-2.11,1.444-2.872,1.393-5.052c-0.055-2.484-3.17-4.662-0.174-5.748   C11.977,0.257,4.153,1.215,2.878,5.13C4.041,5.38,5.613,4.608,5.84,5.479z M13.676,16.452c3.17-1.164,5.382-6.925,2.96-10.452   C16.688,9.838,14.62,13.03,13.676,16.452z M5.84,16.8C4.671,13.206,3.468,9.648,2.007,6.35C0.334,10.7,2.473,15.388,5.84,16.8z    M7.231,17.322c1.154,0.604,3.683,0.419,4.876,0c-0.761-2.374-1.339-4.929-2.612-6.793C8.884,12.937,8.044,15.117,7.231,17.322z"
   id="path5"
   style="fill:#2a80b7;fill-opacity:1" />
	<g
   id="g7">
	</g>
	<g
   id="g9">
	</g>
	<g
   id="g11">
	</g>
	<g
   id="g13">
	</g>
	<g
   id="g15">
	</g>
	<g
   id="g17">
	</g>
	<g
   id="g19">
	</g>
	<g
   id="g21">
	</g>
	<g
   id="g23">
	</g>
	<g
   id="g25">
	</g>
	<g
   id="g27">
	</g>
	<g
   id="g29">
	</g>
	<g
   id="g31">
	</g>
	<g
   id="g33">
	</g>
	<g
   id="g35">
	</g>
</g>
<g
   id="g37">
</g>
<g
   id="g39">
</g>
<g
   id="g41">
</g>
<g
   id="g43">
</g>
<g
   id="g45">
</g>
<g
   id="g47">
</g>
<g
   id="g49">
</g>
<g
   id="g51">
</g>
<g
   id="g53">
</g>
<g
   id="g55">
</g>
<g
   id="g57">
</g>
<g
   id="g59">
</g>
<g
   id="g61">
</g>
<g
   id="g63">
</g>
<g
   id="g65">
</g>
</svg>